<svg width="1820" height="460" viewBox="0 0 1820 460" fill="none" xmlns="http://www.w3.org/2000/svg">
<path d="M243.214 460C208.168 460 175.655 454.282 145.675 442.845C116.118 431.409 90.3608 415.313 68.404 394.558C46.8694 373.803 29.9795 349.448 17.7344 321.492C5.91145 293.536 0 263.039 0 230C0 196.961 5.91145 166.464 17.7344 138.508C29.9795 110.552 47.0805 86.1971 69.0373 65.442C90.9942 44.6869 116.751 28.5911 146.308 17.1547C175.866 5.71822 207.956 0 242.581 0C277.627 0 309.718 5.71822 338.853 17.1547C368.41 28.5911 393.956 44.6869 415.491 65.442C437.448 86.1971 454.549 110.552 466.794 138.508C479.039 166.041 485.161 196.538 485.161 230C485.161 263.039 479.039 293.748 466.794 322.127C454.549 350.083 437.448 374.438 415.491 395.193C393.956 415.525 368.41 431.409 338.853 442.845C309.718 454.282 277.838 460 243.214 460ZM242.581 372.32C262.426 372.32 280.583 368.932 297.051 362.155C313.94 355.378 328.719 345.635 341.386 332.928C354.054 320.221 363.766 305.184 370.521 287.818C377.7 270.451 381.289 251.179 381.289 230C381.289 208.821 377.7 189.549 370.521 172.182C363.766 154.816 354.054 139.779 341.386 127.072C329.141 114.365 314.574 104.622 297.684 97.8453C280.794 91.0681 262.426 87.6796 242.581 87.6796C222.735 87.6796 204.367 91.0681 187.478 97.8453C171.01 104.622 156.442 114.365 143.775 127.072C131.108 139.779 121.185 154.816 114.007 172.182C107.251 189.549 103.873 208.821 103.873 230C103.873 250.755 107.251 270.028 114.007 287.818C121.185 305.184 130.896 320.221 143.142 332.928C155.809 345.635 170.588 355.378 187.478 362.155C204.367 368.932 222.735 372.32 242.581 372.32Z" fill="#F1F1F1"/>
<path d="M709.585 452.376V110.552H807.758V243.978H955.966V110.552H1054.77V452.376H955.966V324.669H807.758V452.376H709.585Z" fill="#F1F1F1"/>
<path d="M1340.11 452.376V385.663L1333.77 371.05V251.602C1333.77 230.424 1327.23 213.904 1314.14 202.044C1301.47 190.184 1281.84 184.254 1255.24 184.254C1237.08 184.254 1219.13 187.219 1201.4 193.149C1184.09 198.656 1169.31 206.28 1157.06 216.022L1121.59 146.768C1140.17 133.637 1162.55 123.471 1188.73 116.271C1214.91 109.07 1241.51 105.47 1268.54 105.47C1320.47 105.47 1360.8 117.753 1389.51 142.32C1418.22 166.888 1432.58 205.221 1432.58 257.32V452.376H1340.11ZM1236.23 457.459C1209.63 457.459 1186.83 453.011 1167.83 444.116C1148.83 434.797 1134.26 422.302 1124.13 406.63C1113.99 390.958 1108.93 373.379 1108.93 353.895C1108.93 333.564 1113.78 315.773 1123.49 300.525C1133.63 285.276 1149.46 273.416 1171 264.945C1192.53 256.05 1220.61 251.602 1255.24 251.602H1345.81V309.42H1266C1242.78 309.42 1226.73 313.232 1217.87 320.856C1209.42 328.481 1205.2 338.011 1205.2 349.448C1205.2 362.155 1210.05 372.32 1219.77 379.945C1229.9 387.146 1243.62 390.746 1260.94 390.746C1277.4 390.746 1292.18 386.934 1305.27 379.309C1318.36 371.262 1327.86 359.613 1333.77 344.365L1348.97 390.111C1341.8 412.136 1328.71 428.867 1309.71 440.304C1290.7 451.74 1266.21 457.459 1236.23 457.459Z" fill="#F1F1F1"/>
<path d="M1667.36 457.459C1630.62 457.459 1597.9 450.046 1569.19 435.221C1540.47 419.972 1517.88 399.006 1501.41 372.32C1485.37 345.635 1477.35 315.35 1477.35 281.464C1477.35 247.155 1485.37 216.869 1501.41 190.608C1517.88 163.923 1540.47 143.168 1569.19 128.343C1597.9 113.094 1630.62 105.47 1667.36 105.47C1703.25 105.47 1734.49 113.094 1761.1 128.343C1787.7 143.168 1807.33 164.558 1820 192.514L1743.36 233.812C1734.5 217.716 1723.31 205.856 1709.79 198.232C1696.7 190.608 1682.35 186.796 1666.72 186.796C1649.83 186.796 1634.63 190.608 1621.12 198.232C1607.61 205.856 1596.84 216.657 1588.82 230.635C1581.22 244.613 1577.42 261.556 1577.42 281.464C1577.42 301.372 1581.22 318.315 1588.82 332.293C1596.84 346.271 1607.61 357.072 1621.12 364.696C1634.63 372.32 1649.83 376.133 1666.72 376.133C1682.35 376.133 1696.7 372.532 1709.79 365.332C1723.31 357.707 1734.5 345.635 1743.36 329.116L1820 371.05C1807.33 398.582 1787.7 419.972 1761.1 435.221C1734.49 450.046 1703.25 457.459 1667.36 457.459Z" fill="#F1F1F1"/>
</svg>
