<svg width="164" height="60" viewBox="0 0 164 60" fill="none" xmlns="http://www.w3.org/2000/svg">
<path d="M32.6805 40H31.2159L25.274 28.0325H8.61994L2.80357 40H1.33902L16.9888 7.86352L32.6805 40ZM24.7719 26.819L16.9051 10.8763L9.20576 26.819H24.7719ZM49.4349 21.17L40.1873 40.544L30.8978 21.17H32.3624L40.1873 37.4893L47.9703 21.17H49.4349ZM60.6322 39.3305C62.0828 39.3305 63.4636 38.9539 64.7748 38.2007C66.0859 37.4475 67.1738 36.4153 68.0386 35.1042V37.2383C67.0065 38.382 65.8767 39.2189 64.6492 39.7489C63.4218 40.2511 62.027 40.5021 60.4648 40.5021C58.7352 40.5021 57.1033 40.0418 55.569 39.1213C54.0626 38.2007 52.8491 36.9733 51.9285 35.439C51.0359 33.9047 50.5895 32.2727 50.5895 30.5432C50.5895 28.6741 51.0359 27.0003 51.9285 25.5218C52.8212 24.0154 54.0347 22.8438 55.569 22.0069C57.1312 21.17 58.8608 20.7516 60.7577 20.7516C63.6589 20.7516 66.1277 21.8953 68.1642 24.1828L55.025 37.1546C55.9456 37.9078 56.8383 38.4657 57.7031 38.8284C58.5679 39.1631 59.5442 39.3305 60.6322 39.3305ZM51.9285 30.4176C51.9285 32.733 52.6957 34.7137 54.23 36.3595L66.4904 24.1828C65.5698 23.3738 64.6771 22.802 63.8123 22.4672C62.9476 22.1046 61.9154 21.9232 60.7159 21.9232C59.0142 21.9232 57.4938 22.2998 56.1548 23.053C54.8437 23.7783 53.8115 24.7826 53.0583 26.0658C52.3051 27.3491 51.9285 28.7997 51.9285 30.4176ZM72.3496 21.17H73.6886V25.3545C74.3023 23.9597 75.3484 22.8438 76.8269 22.0069C78.3054 21.1421 79.9374 20.7097 81.7227 20.7097C84.0381 20.7097 85.8653 21.449 87.2043 22.9275C88.5713 24.3781 89.2547 26.4145 89.2547 29.0368V40H87.9157V29.0368C87.9157 26.7772 87.3578 25.0197 86.2419 23.7644C85.154 22.5091 83.6197 21.8814 81.639 21.8814C80.1884 21.8814 78.8494 22.2161 77.622 22.8856C76.4224 23.5273 75.46 24.4199 74.7347 25.5637C74.0373 26.7074 73.6886 28.0046 73.6886 29.4552V40H72.3496V21.17ZM102.824 40.4603C100.174 40.4603 98.1232 39.735 96.6726 38.2844C95.2499 36.8338 94.5385 34.7834 94.5385 32.1333V21.17H95.8776V32.1333C95.8776 34.4207 96.4773 36.1922 97.6769 37.4475C98.9043 38.6749 100.62 39.2886 102.824 39.2886C104.163 39.2886 105.39 38.9957 106.506 38.4099C107.622 37.7962 108.501 36.9454 109.142 35.8574C109.784 34.7695 110.105 33.5281 110.105 32.1333V21.17H111.444V40H110.105V36.4851C109.463 37.6567 108.501 38.6191 107.217 39.3723C105.934 40.0976 104.47 40.4603 102.824 40.4603ZM125.891 39.3305C127.342 39.3305 128.723 38.9539 130.034 38.2007C131.345 37.4475 132.433 36.4153 133.298 35.1042V37.2383C132.266 38.382 131.136 39.2189 129.908 39.7489C128.681 40.2511 127.286 40.5021 125.724 40.5021C123.994 40.5021 122.363 40.0418 120.828 39.1213C119.322 38.2007 118.108 36.9733 117.188 35.439C116.295 33.9047 115.849 32.2727 115.849 30.5432C115.849 28.6741 116.295 27.0003 117.188 25.5218C118.08 24.0154 119.294 22.8438 120.828 22.0069C122.39 21.17 124.12 20.7516 126.017 20.7516C128.918 20.7516 131.387 21.8953 133.423 24.1828L120.284 37.1546C121.205 37.9078 122.098 38.4657 122.962 38.8284C123.827 39.1631 124.803 39.3305 125.891 39.3305ZM117.188 30.4176C117.188 32.733 117.955 34.7137 119.489 36.3595L131.75 24.1828C130.829 23.3738 129.936 22.802 129.072 22.4672C128.207 22.1046 127.175 21.9232 125.975 21.9232C124.273 21.9232 122.753 22.2998 121.414 23.053C120.103 23.7783 119.071 24.7826 118.318 26.0658C117.564 27.3491 117.188 28.7997 117.188 30.4176Z" fill="black"/>
<path d="M145.467 19.0799C144.528 19.0799 143.627 18.8787 142.762 18.4764C141.913 18.0591 141.183 17.4929 140.572 16.7776C139.961 16.0474 139.551 15.2352 139.342 14.3411H140.035C140.393 15.5482 141.078 16.5391 142.092 17.314C143.105 18.074 144.23 18.454 145.467 18.454C146.495 18.454 147.441 18.2007 148.306 17.694C149.17 17.1725 149.856 16.4795 150.362 15.6152C150.869 14.736 151.122 13.7823 151.122 12.7541C151.122 11.7258 150.884 10.7721 150.407 9.89291C149.945 9.0137 149.312 8.32077 148.507 7.81411C147.717 7.29254 146.853 7.03176 145.914 7.03176C145.005 7.03176 144.156 7.25529 143.366 7.70234C142.576 8.1494 141.876 8.76782 141.265 9.55762H140.482L141.265 2.0918H149.982V2.74003H141.868L141.265 8.48469C141.846 7.81411 142.539 7.29999 143.343 6.94235C144.148 6.5847 145.005 6.40588 145.914 6.40588C147.002 6.40588 147.993 6.69647 148.887 7.27764C149.796 7.84391 150.511 8.61136 151.033 9.57998C151.569 10.5486 151.837 11.6066 151.837 12.7541C151.837 13.9015 151.547 14.9595 150.966 15.9282C150.399 16.8968 149.625 17.6642 148.641 18.2305C147.672 18.7968 146.614 19.0799 145.467 19.0799Z" fill="black"/>
<path d="M72.8096 43.6221V58.9999H162.984V10.6697H155.354M72.8096 17.6786V10.6697H137.262" stroke="black" stroke-width="0.836887"/>
<path d="M77.9446 54.3515C77.5638 54.3515 77.2123 54.2607 76.8901 54.0791C76.5738 53.8975 76.3219 53.6486 76.1344 53.3322C75.9469 53.0159 75.8532 52.6585 75.8532 52.2602C75.8532 51.8911 75.9469 51.5513 76.1344 51.2408C76.3219 50.9245 76.5767 50.6726 76.8989 50.4851C77.227 50.2977 77.5872 50.2039 77.9797 50.2039C78.3078 50.2039 78.589 50.2566 78.8233 50.3621C79.0576 50.4675 79.2861 50.6316 79.5087 50.8542V51.3287C79.3154 51.0416 79.0987 50.8249 78.8585 50.6784C78.6241 50.5261 78.3312 50.45 77.9797 50.45C77.6575 50.45 77.3529 50.5349 77.0659 50.7048C76.7847 50.8688 76.5591 51.0914 76.3892 51.3726C76.2193 51.6538 76.1344 51.9555 76.1344 52.2777C76.1344 52.6292 76.2164 52.9456 76.3804 53.2268C76.5445 53.5021 76.7642 53.7189 77.0395 53.877C77.3207 54.0293 77.6224 54.1055 77.9446 54.1055C78.6007 54.1055 79.1221 53.8097 79.5087 53.218V53.6925C79.2978 53.9151 79.0635 54.0821 78.8057 54.1934C78.5538 54.2988 78.2668 54.3515 77.9446 54.3515ZM81.3762 50.5378H79.8648V50.2918H83.1688V50.5378H81.6574V54.2373H81.3762V50.5378ZM85.4076 54.2285L83.5184 50.283H83.8171L85.557 53.9122L87.2881 50.283H87.5605L84.8452 55.9948H84.5728L85.4076 54.2285ZM91.4745 53.9825V55.0897H91.2285V54.2373H87.4324V55.0897H87.1863V53.9913H87.5114L89.348 50.1688L91.1845 53.9825H91.4745ZM90.9033 53.9825L89.348 50.7487L87.7926 53.9825H90.9033ZM92.1828 50.283H92.4552V53.8419L95.2935 50.283H95.5483V54.2373H95.2759V50.6872L92.4288 54.2373H92.1828V50.283ZM97.58 52.8489C97.2871 52.7786 97.0498 52.6263 96.8682 52.392C96.6925 52.1518 96.6046 51.8677 96.6046 51.5396C96.6046 51.3228 96.6632 51.1178 96.7803 50.9245C96.8975 50.7312 97.0557 50.5759 97.2549 50.4588C97.454 50.3416 97.6708 50.283 97.9051 50.283H98.4324V54.2373H98.1512V52.8753H97.8612L96.8594 54.2373H96.5607L97.58 52.8489ZM98.1512 52.638V50.5203H97.8875C97.7118 50.5203 97.5448 50.5701 97.3867 50.6697C97.2285 50.7692 97.0996 50.9011 97 51.0651C96.9063 51.2233 96.8594 51.3931 96.8594 51.5747C96.8594 51.7564 96.9063 51.9292 97 52.0932C97.0996 52.2572 97.2285 52.389 97.3867 52.4886C97.5448 52.5882 97.7118 52.638 97.8875 52.638H98.1512ZM105.514 53.9825V55.0897H105.268V54.2373H101.471V55.0897H101.225V53.9913H101.551L103.387 50.1688L105.224 53.9825H105.514ZM104.942 53.9825L103.387 50.7487L101.832 53.9825H104.942ZM106.222 50.283H106.494V53.8419L109.333 50.283H109.587V54.2373H109.315V50.6872L106.468 54.2373H106.222V50.283ZM111.584 54.3515C111.109 54.3515 110.723 54.1524 110.424 53.754V53.2707C110.518 53.5226 110.664 53.7247 110.863 53.877C111.068 54.0293 111.314 54.1055 111.602 54.1055C111.924 54.1055 112.181 54.0059 112.375 53.8067C112.574 53.6075 112.674 53.3351 112.674 52.9895C112.674 52.6556 112.565 52.3861 112.348 52.1811C112.138 51.976 111.88 51.8735 111.575 51.8735H111.364V51.6275H111.54C111.722 51.6275 111.877 51.5689 112.006 51.4517C112.14 51.3287 112.208 51.1793 112.208 51.0036C112.208 50.8395 112.158 50.7048 112.058 50.5994C111.959 50.488 111.818 50.4324 111.637 50.4324C111.32 50.4324 111.089 50.5906 110.942 50.9069V50.4763C111.13 50.3006 111.364 50.2127 111.645 50.2127C111.886 50.2127 112.082 50.2918 112.234 50.45C112.387 50.6081 112.463 50.7956 112.463 51.0124C112.463 51.1764 112.416 51.3199 112.322 51.4429C112.228 51.566 112.105 51.6568 111.953 51.7153C112.24 51.7798 112.477 51.9233 112.665 52.1459C112.858 52.3627 112.955 52.6439 112.955 52.9895C112.955 53.3879 112.826 53.7159 112.568 53.9737C112.316 54.2256 111.988 54.3515 111.584 54.3515ZM115.72 54.334C115.345 54.334 114.996 54.2402 114.674 54.0528C114.352 53.8653 114.097 53.6134 113.91 53.2971C113.722 52.9749 113.628 52.6292 113.628 52.2602C113.628 51.8911 113.722 51.5484 113.91 51.232C114.097 50.9098 114.352 50.655 114.674 50.4675C114.996 50.2801 115.345 50.1864 115.72 50.1864C116.101 50.1864 116.461 50.2889 116.801 50.4939C117.14 50.6931 117.378 50.9538 117.512 51.276V50.283H117.794V54.2373H117.512V53.2531C117.354 53.5812 117.108 53.8448 116.774 54.044C116.446 54.2373 116.095 54.334 115.72 54.334ZM115.737 54.0879C116.06 54.0879 116.358 54.0059 116.634 53.8419C116.909 53.672 117.126 53.4494 117.284 53.174C117.448 52.8928 117.53 52.5882 117.53 52.2602C117.53 51.938 117.448 51.6363 117.284 51.3551C117.12 51.0739 116.9 50.8513 116.625 50.6872C116.35 50.5173 116.051 50.4324 115.729 50.4324C115.406 50.4324 115.105 50.5173 114.823 50.6872C114.548 50.8571 114.326 51.0827 114.156 51.3639C113.992 51.645 113.91 51.9467 113.91 52.2689C113.91 52.5911 113.992 52.8928 114.156 53.174C114.326 53.4494 114.551 53.672 114.832 53.8419C115.113 54.0059 115.415 54.0879 115.737 54.0879ZM119.008 50.283H119.281V53.8419L122.119 50.283H122.374V54.2373H122.101V50.6872L119.254 54.2373H119.008V50.283ZM120.695 49.1494C120.303 49.1494 119.995 49.0528 119.773 48.8595C119.55 48.6661 119.433 48.423 119.421 48.1301H119.667C119.685 48.3527 119.784 48.5373 119.966 48.6837C120.153 48.8302 120.394 48.9034 120.687 48.9034C120.974 48.9034 121.208 48.8302 121.39 48.6837C121.577 48.5373 121.685 48.3527 121.715 48.1301H121.961C121.949 48.4172 121.829 48.6603 121.6 48.8595C121.372 49.0528 121.07 49.1494 120.695 49.1494ZM123.694 50.283H123.975V52.5062H126.655V50.283H126.936V54.2373H126.655V52.7522H123.975V54.2373H123.694V50.283ZM130.008 54.334C129.633 54.334 129.284 54.2402 128.962 54.0528C128.64 53.8653 128.385 53.6134 128.198 53.2971C128.01 52.9749 127.916 52.6292 127.916 52.2602C127.916 51.8911 128.01 51.5484 128.198 51.232C128.385 50.9098 128.64 50.655 128.962 50.4675C129.284 50.2801 129.633 50.1864 130.008 50.1864C130.389 50.1864 130.749 50.2889 131.089 50.4939C131.428 50.6931 131.666 50.9538 131.8 51.276V50.283H132.082V54.2373H131.8V53.2531C131.642 53.5812 131.396 53.8448 131.062 54.044C130.734 54.2373 130.383 54.334 130.008 54.334ZM130.025 54.0879C130.348 54.0879 130.646 54.0059 130.922 53.8419C131.197 53.672 131.414 53.4494 131.572 53.174C131.736 52.8928 131.818 52.5882 131.818 52.2602C131.818 51.938 131.736 51.6363 131.572 51.3551C131.408 51.0739 131.188 50.8513 130.913 50.6872C130.637 50.5173 130.339 50.4324 130.017 50.4324C129.694 50.4324 129.393 50.5173 129.111 50.6872C128.836 50.8571 128.613 51.0827 128.444 51.3639C128.28 51.645 128.198 51.9467 128.198 52.2689C128.198 52.5911 128.28 52.8928 128.444 53.174C128.613 53.4494 128.839 53.672 129.12 53.8419C129.401 54.0059 129.703 54.0879 130.025 54.0879Z" fill="black"/>
</svg>
