<svg width="1820" height="197" viewBox="0 0 1820 197" fill="none" xmlns="http://www.w3.org/2000/svg">
<path d="M0 152.882V0H141.875V152.882H106.072V20.7483L114.3 28.8293H27.5744L35.8022 20.7483V152.882H0Z" fill="#F1F1F1"/>
<path d="M248.286 154.63C238.205 154.63 229.384 152.446 221.823 148.078C214.262 143.71 208.332 137.085 204.033 128.203C199.882 119.176 197.807 107.819 197.807 94.1319C197.807 80.2997 199.808 68.9427 203.811 60.061C207.814 51.1792 213.595 44.5543 221.156 40.1863C228.717 35.8182 237.76 33.6342 248.286 33.6342C259.553 33.6342 269.634 36.1822 278.529 41.2783C287.572 46.2288 294.688 53.2177 299.876 62.245C305.213 71.2724 307.882 81.9013 307.882 94.1319C307.882 106.508 305.213 117.21 299.876 126.237C294.688 135.265 287.572 142.254 278.529 147.204C269.634 152.154 259.553 154.63 248.286 154.63ZM177.571 195.253V35.3814H210.704V59.4058L210.037 94.3503L212.261 129.076V195.253H177.571ZM242.282 126.674C248.063 126.674 253.178 125.364 257.625 122.743C262.221 120.122 265.853 116.409 268.522 111.604C271.338 106.654 272.747 100.83 272.747 94.1319C272.747 87.2886 271.338 81.4645 268.522 76.6596C265.853 71.8548 262.221 68.1419 257.625 65.5211C253.178 62.9002 248.063 61.5898 242.282 61.5898C236.5 61.5898 231.311 62.9002 226.715 65.5211C222.12 68.1419 218.488 71.8548 215.819 76.6596C213.151 81.4645 211.816 87.2886 211.816 94.1319C211.816 100.83 213.151 106.654 215.819 111.604C218.488 116.409 222.12 120.122 226.715 122.743C231.311 125.364 236.5 126.674 242.282 126.674Z" fill="#F1F1F1"/>
<path d="M390.68 154.63C377.041 154.63 365.033 152.009 354.655 146.767C344.426 141.525 336.495 134.391 330.861 125.364C325.228 116.191 322.411 105.78 322.411 94.1319C322.411 82.3381 325.153 71.9276 330.639 62.9002C336.272 53.7273 343.907 46.5928 353.543 41.4967C363.179 36.255 374.076 33.6342 386.232 33.6342C397.944 33.6342 408.47 36.1094 417.809 41.0599C427.297 45.8647 434.784 52.8537 440.269 62.0266C445.754 71.054 448.497 81.9013 448.497 94.5687C448.497 95.8792 448.423 97.408 448.274 99.1552C448.126 100.757 447.978 102.286 447.83 103.742H350.652V83.867H429.595L416.253 89.7639C416.253 83.6486 414.992 78.3341 412.472 73.8204C409.952 69.3067 406.468 65.8123 402.021 63.337C397.573 60.7162 392.384 59.4058 386.455 59.4058C380.525 59.4058 375.262 60.7162 370.666 63.337C366.219 65.8123 362.735 69.3795 360.214 74.0388C357.694 78.5525 356.434 83.9398 356.434 90.2007V95.4424C356.434 101.849 357.842 107.527 360.659 112.478C363.624 117.283 367.701 120.996 372.89 123.616C378.227 126.092 384.453 127.329 391.569 127.329C397.944 127.329 403.503 126.383 408.247 124.49C413.139 122.597 417.587 119.758 421.59 115.972L440.047 135.629C434.561 141.744 427.668 146.476 419.366 149.825C411.064 153.028 401.502 154.63 390.68 154.63Z" fill="#F1F1F1"/>
<path d="M475.088 152.882V35.3814H509.556V105.271L567.818 35.3814H599.617V152.882H565.149V82.9933L507.11 152.882H475.088Z" fill="#F1F1F1"/>
<path d="M632.965 152.882V35.3814H669.212L714.354 115.754H699.899L748.154 35.3814H780.621L781.066 152.882H749.711V70.3259L755.048 73.8204L713.909 141.525H699.232L657.871 71.418L664.319 69.8891V152.882H632.965Z" fill="#F1F1F1"/>
<path d="M830.528 197C824.302 197 818.149 196.054 812.071 194.161C805.993 192.268 801.027 189.647 797.172 186.298L809.847 162.055C812.516 164.385 815.555 166.205 818.965 167.516C822.523 168.826 826.007 169.481 829.416 169.481C834.309 169.481 838.163 168.316 840.98 165.987C843.945 163.803 846.613 160.09 848.985 154.848L855.212 140.433L857.88 136.721L900.798 35.3814H934.154L880.118 160.09C876.263 169.554 871.816 176.98 866.775 182.367C861.883 187.754 856.398 191.54 850.32 193.724C844.39 195.908 837.792 197 830.528 197ZM850.987 157.469L797.617 35.3814H833.419L874.781 133.663L850.987 157.469Z" fill="#F1F1F1"/>
<path d="M1032.5 124.927L1024.94 132.789V35.3814H1059.63V132.789L1051.63 124.927H1106.77L1098.99 132.789V35.3814H1133.46V152.882H950.89V35.3814H985.358V132.789L977.575 124.927H1032.5ZM1117.89 176.252V145.02L1125.68 152.882H1098.1V124.927H1150.14V176.252H1117.89Z" fill="#F1F1F1"/>
<path d="M1225.23 154.63C1211.59 154.63 1199.59 152.009 1189.21 146.767C1178.98 141.525 1171.05 134.391 1165.41 125.364C1159.78 116.191 1156.96 105.78 1156.96 94.1319C1156.96 82.3381 1159.71 71.9276 1165.19 62.9002C1170.83 53.7273 1178.46 46.5928 1188.1 41.4967C1197.73 36.255 1208.63 33.6342 1220.79 33.6342C1232.5 33.6342 1243.02 36.1094 1252.36 41.0599C1261.85 45.8647 1269.34 52.8537 1274.82 62.0266C1280.31 71.054 1283.05 81.9013 1283.05 94.5687C1283.05 95.8792 1282.98 97.408 1282.83 99.1552C1282.68 100.757 1282.53 102.286 1282.38 103.742H1185.21V83.867H1264.15L1250.81 89.7639C1250.81 83.6486 1249.55 78.3341 1247.03 73.8204C1244.51 69.3067 1241.02 65.8123 1236.57 63.337C1232.13 60.7162 1226.94 59.4058 1221.01 59.4058C1215.08 59.4058 1209.82 60.7162 1205.22 63.337C1200.77 65.8123 1197.29 69.3795 1194.77 74.0388C1192.25 78.5525 1190.99 83.9398 1190.99 90.2007V95.4424C1190.99 101.849 1192.4 107.527 1195.21 112.478C1198.18 117.283 1202.25 120.996 1207.44 123.616C1212.78 126.092 1219.01 127.329 1226.12 127.329C1232.5 127.329 1238.06 126.383 1242.8 124.49C1247.69 122.597 1252.14 119.758 1256.14 115.972L1274.6 135.629C1269.11 141.744 1262.22 146.476 1253.92 149.825C1245.62 153.028 1236.06 154.63 1225.23 154.63Z" fill="#F1F1F1"/>
<path d="M1366.57 154.63C1353.67 154.63 1342.18 152.082 1332.1 146.986C1322.02 141.744 1314.09 134.537 1308.31 125.364C1302.67 116.191 1299.86 105.78 1299.86 94.1319C1299.86 82.3381 1302.67 71.9276 1308.31 62.9002C1314.09 53.7273 1322.02 46.5928 1332.1 41.4967C1342.18 36.255 1353.67 33.6342 1366.57 33.6342C1379.17 33.6342 1390.14 36.255 1399.48 41.4967C1408.82 46.5928 1415.71 53.9457 1420.16 63.5554L1393.25 77.7517C1390.14 72.2188 1386.21 68.1419 1381.47 65.5211C1376.87 62.9002 1371.83 61.5898 1366.35 61.5898C1360.42 61.5898 1355.08 62.9002 1350.34 65.5211C1345.59 68.1419 1341.81 71.8548 1338.99 76.6596C1336.33 81.4645 1334.99 87.2886 1334.99 94.1319C1334.99 100.975 1336.33 106.799 1338.99 111.604C1341.81 116.409 1345.59 120.122 1350.34 122.743C1355.08 125.364 1360.42 126.674 1366.35 126.674C1371.83 126.674 1376.87 125.436 1381.47 122.961C1386.21 120.34 1390.14 116.191 1393.25 110.512L1420.16 124.927C1415.71 134.391 1408.82 141.744 1399.48 146.986C1390.14 152.082 1379.17 154.63 1366.57 154.63Z" fill="#F1F1F1"/>
<path d="M1466.6 152.882V55.4745L1474.38 63.337H1426.13V35.3814H1541.54V63.337H1493.28L1501.07 55.4745V152.882H1466.6Z" fill="#F1F1F1"/>
<path d="M1560.03 152.882V35.3814H1621.18C1636.16 35.3814 1647.87 38.075 1656.32 43.4623C1664.77 48.704 1668.99 56.1297 1668.99 65.7395C1668.99 75.3492 1664.99 82.9205 1656.98 88.4534C1649.13 93.8407 1638.68 96.5344 1625.63 96.5344L1629.19 88.6718C1643.72 88.6718 1654.54 91.2927 1661.65 96.5344C1668.92 101.776 1672.55 109.42 1672.55 119.467C1672.55 129.805 1668.55 137.958 1660.54 143.928C1652.54 149.898 1640.31 152.882 1623.85 152.882H1560.03ZM1591.83 129.732H1620.96C1627.33 129.732 1632.08 128.712 1635.19 126.674C1638.45 124.49 1640.08 121.214 1640.08 116.846C1640.08 112.332 1638.6 109.056 1635.64 107.018C1632.67 104.834 1628 103.742 1621.63 103.742H1591.83V129.732ZM1591.83 83.6486H1618.07C1624.15 83.6486 1628.67 82.5565 1631.63 80.3725C1634.75 78.1885 1636.3 75.058 1636.3 70.9811C1636.3 66.7587 1634.75 63.6282 1631.63 61.5898C1628.67 59.5514 1624.15 58.5322 1618.07 58.5322H1591.83V83.6486Z" fill="#F1F1F1"/>
<path d="M1754.4 154.63C1741.65 154.63 1730.31 152.009 1720.38 146.767C1710.59 141.525 1702.81 134.391 1697.03 125.364C1691.39 116.191 1688.58 105.78 1688.58 94.1319C1688.58 82.3381 1691.39 71.9276 1697.03 62.9002C1702.81 53.7273 1710.59 46.5928 1720.38 41.4967C1730.31 36.255 1741.65 33.6342 1754.4 33.6342C1767 33.6342 1778.27 36.255 1788.2 41.4967C1798.13 46.5928 1805.92 53.6545 1811.55 62.6818C1817.18 71.7092 1820 82.1925 1820 94.1319C1820 105.78 1817.18 116.191 1811.55 125.364C1805.92 134.391 1798.13 141.525 1788.2 146.767C1778.27 152.009 1767 154.63 1754.4 154.63ZM1754.4 126.674C1760.18 126.674 1765.37 125.364 1769.97 122.743C1774.56 120.122 1778.19 116.409 1780.86 111.604C1783.53 106.654 1784.86 100.83 1784.86 94.1319C1784.86 87.2886 1783.53 81.4645 1780.86 76.6596C1778.19 71.8548 1774.56 68.1419 1769.97 65.5211C1765.37 62.9002 1760.18 61.5898 1754.4 61.5898C1748.62 61.5898 1743.43 62.9002 1738.83 65.5211C1734.24 68.1419 1730.53 71.8548 1727.71 76.6596C1725.05 81.4645 1723.71 87.2886 1723.71 94.1319C1723.71 100.83 1725.05 106.654 1727.71 111.604C1730.53 116.409 1734.24 120.122 1738.83 122.743C1743.43 125.364 1748.62 126.674 1754.4 126.674Z" fill="#F1F1F1"/>
</svg>
