<svg width="50" height="50" viewBox="0 0 50 50" fill="none" xmlns="http://www.w3.org/2000/svg">
<path d="M37.3441 50H28.8744L25.0069 48.7247L21.1672 50H12.6559C5.66953 50 0 44.3305 0 37.3441V12.6559C0 5.66953 5.66953 0 12.6559 0H37.3441C44.3305 0 50 5.66953 50 12.6559V37.3441C50 44.3305 44.3305 50 37.3441 50Z" fill="black"/>
<path d="M21.1399 19.5592V24.9931H14.8743V32.132H21.1399V49.9862H28.861V32.132H34.6137L35.7088 24.9931H28.861V20.3632C28.861 18.4087 29.8174 16.5096 32.8809 16.5096H35.9999V10.438C35.9999 10.438 33.172 9.95288 30.4689 9.95288C24.8271 9.95288 21.1399 13.3768 21.1399 19.5592Z" fill="white"/>
</svg>
