<svg width="50" height="50" viewBox="0 0 50 50" fill="none" xmlns="http://www.w3.org/2000/svg">
<path d="M37.3441 0L12.6559 0C5.66626 0 0 5.66626 0 12.6559L0 37.344C0 44.3337 5.66626 50 12.6559 50L37.3441 50C44.3337 50 50 44.3337 50 37.344L50 12.6559C50 5.66626 44.3337 0 37.3441 0Z" fill="black"/>
<path d="M32.6589 15.7328C31.7163 15.7328 30.9678 16.4952 30.9678 17.4239C30.9678 18.3527 31.7302 19.1151 32.6589 19.1151C33.5877 19.1151 34.3501 18.3527 34.3501 17.4239C34.3501 16.4952 33.5877 15.7328 32.6589 15.7328Z" fill="white"/>
<path d="M25.1177 17.9089C21.1809 17.9089 17.9927 21.111 17.9927 25.034C17.9927 28.9569 21.1948 32.159 25.1177 32.159C29.0406 32.159 32.2427 28.9569 32.2427 25.034C32.2427 21.111 29.0406 17.9089 25.1177 17.9089ZM25.1177 29.6084C22.5948 29.6084 20.5571 27.5568 20.5571 25.0478C20.5571 22.5388 22.6087 20.4873 25.1177 20.4873C27.6267 20.4873 29.6783 22.5388 29.6783 25.0478C29.6783 27.5568 27.6267 29.6084 25.1177 29.6084Z" fill="white"/>
<path d="M30.7743 39.5197H19.2134C14.4172 39.5197 10.522 35.6244 10.522 30.8282L10.522 19.2674C10.522 14.4711 14.4172 10.5759 19.2134 10.5759L30.7743 10.5759C35.5705 10.5759 39.4657 14.4711 39.4657 19.2674V30.8282C39.4657 35.6244 35.5705 39.5197 30.7743 39.5197ZM19.2134 13.2929C15.9143 13.2929 13.2389 15.9682 13.2389 19.2674L13.2389 30.8282C13.2389 34.1274 15.9143 36.8027 19.2134 36.8027H30.7743C34.0734 36.8027 36.7488 34.1274 36.7488 30.8282V19.2674C36.7488 15.9682 34.0734 13.2929 30.7743 13.2929L19.2134 13.2929Z" fill="white"/>
</svg>
