<svg width="50" height="50" viewBox="0 0 50 50" fill="none" xmlns="http://www.w3.org/2000/svg">
<path d="M37.3441 0L12.6559 0C5.66626 0 0 5.66626 0 12.6559L0 37.3441C0 44.3337 5.66626 50 12.6559 50L37.3441 50C44.3337 50 50 44.3337 50 37.3441L50 12.6559C50 5.66626 44.3337 0 37.3441 0Z" fill="black"/>
<path d="M38.1199 22.0679C37.8704 22.0956 37.6209 22.1095 37.3714 22.1095C34.6129 22.1095 32.0345 20.7233 30.5097 18.4083L30.5097 31.0227C30.5097 36.1793 26.3373 40.3518 21.1806 40.3518C16.024 40.3518 11.8516 36.1793 11.8516 31.0227C11.8516 25.866 16.024 21.6936 21.1806 21.6936C21.3747 21.6936 21.5688 21.7075 21.7628 21.7213L21.7628 26.3235C21.5688 26.2958 21.3886 26.268 21.1806 26.268C18.5469 26.268 16.426 28.4028 16.426 31.0227C16.426 33.6426 18.5607 35.7773 21.1806 35.7773C23.8005 35.7773 26.1294 33.7119 26.1294 31.0781L26.1709 9.64758L30.5652 9.64758C30.981 13.5844 34.1554 16.6756 38.1061 16.9528V22.054" fill="white"/>
</svg>
