<svg width="50" height="50" viewBox="0 0 50 50" fill="none" xmlns="http://www.w3.org/2000/svg">
<path d="M37.344 0L12.6559 0C5.66626 0 0 5.66627 0 12.656L0 37.3441C0 44.3337 5.66626 50 12.6559 50L37.344 50C44.3337 50 50 44.3337 50 37.3441L50 12.656C50 5.66627 44.3337 0 37.344 0Z" fill="black"/>
<path d="M11.6577 39.3951L13.7231 31.7155C12.5587 29.6085 11.9488 27.252 11.9488 24.8677C11.9488 17.0496 18.3114 10.687 26.1296 10.687C33.9477 10.687 40.3103 17.0496 40.3103 24.8677C40.3103 32.6859 33.9477 39.0485 26.1296 39.0485C23.7869 39.0485 21.4581 38.4525 19.3927 37.3296L11.6716 39.3951H11.6577ZM19.7669 34.4463L20.2521 34.7374C22.0403 35.8048 24.0641 36.3593 26.1296 36.3593C32.4783 36.3593 37.635 31.2027 37.635 24.8539C37.635 18.5051 32.4783 13.3485 26.1296 13.3485C19.7808 13.3485 14.6242 18.5051 14.6242 24.8539C14.6242 26.9471 15.2064 29.0125 16.3015 30.8145L16.6064 31.2997L15.4559 35.583L19.7669 34.4325V34.4463Z" fill="white"/>
<path fill-rule="evenodd" clip-rule="evenodd" d="M31.3978 26.8356C30.8156 26.489 30.0532 26.1009 29.3601 26.3781C28.8334 26.5999 28.5007 27.4178 28.1542 27.8475C27.9739 28.0693 27.766 28.097 27.5026 27.9861C25.5204 27.196 24.0094 25.8791 22.9143 24.0493C22.7341 23.7721 22.7619 23.5364 22.9837 23.2869C23.3163 22.8988 23.7322 22.4552 23.8154 21.9285C23.8985 21.4017 23.6629 20.7918 23.4411 20.3205C23.1639 19.7244 22.8589 18.8788 22.2628 18.5323C21.7084 18.2273 20.9875 18.3936 20.5024 18.7956C19.6568 19.4887 19.2548 20.5561 19.2687 21.6235C19.2687 21.9284 19.3102 22.2334 19.3796 22.5245C19.5459 23.2315 19.8786 23.883 20.239 24.5068C20.5162 24.9781 20.8212 25.4355 21.14 25.8791C22.1935 27.3208 23.5104 28.5683 25.0491 29.4971C25.8115 29.9684 26.6293 30.3703 27.4888 30.6615C28.4453 30.9803 29.2908 31.2991 30.3166 31.105C31.3978 30.8971 32.4514 30.2317 32.8811 29.1921C33.0058 28.8871 33.0751 28.5406 33.0058 28.2218C32.8533 27.5564 31.9523 27.1544 31.4117 26.8217L31.3978 26.8356Z" fill="white"/>
</svg>
