<svg width="50" height="50" viewBox="0 0 50 50" fill="none" xmlns="http://www.w3.org/2000/svg">
<path d="M37.3441 0L12.6559 0C5.66626 0 0 5.66626 0 12.6559L0 37.3441C0 44.3337 5.66626 50 12.6559 50L37.3441 50C44.3337 50 50 44.3337 50 37.3441L50 12.6559C50 5.66626 44.3337 0 37.3441 0Z" fill="black"/>
<path d="M38.218 21.9854C38.218 18.714 35.5565 16.0525 32.2851 16.0525L17.1202 16.0525C13.8487 16.0525 11.1873 18.714 11.1873 21.9854V29.0411C11.1873 32.3125 13.8349 34.974 17.1202 34.974H32.2851C35.5565 34.974 38.218 32.3264 38.218 29.0411V21.9854ZM29.3048 26.0469L22.5125 29.4154C22.2491 29.554 21.3342 29.3599 21.3342 29.0688V22.1656C21.3342 21.8606 22.2491 21.6666 22.5125 21.8191L29.0137 25.3539C29.2909 25.5063 29.5682 25.9083 29.2909 26.0469H29.3048Z" fill="white"/>
</svg>
